<svg width="343" height="156" viewBox="0 0 343 156" fill="none" xmlns="http://www.w3.org/2000/svg">
<path d="M175.25 119.061L101.358 140.614C98.7243 141.383 95.9894 139.806 95.2199 137.077L65.3879 31.2477C64.6184 28.5179 66.1166 25.7069 68.7505 24.9386L142.642 3.38564C145.276 2.61736 148.011 4.19359 148.78 6.9234L178.626 112.801C179.335 115.496 177.836 118.307 175.25 119.061Z" fill="#EC36A4" stroke="white" stroke-width="6" stroke-miterlimit="10"/>
<g filter="url(#filter0_d_2_40)">
<path d="M241.642 140.614L167.75 119.061C165.117 118.293 163.618 115.482 164.388 112.752L194.22 6.92341C194.989 4.1936 197.724 2.61737 200.358 3.38565L274.25 24.9386C276.883 25.7069 278.382 28.5179 277.612 31.2477L247.766 137.125C246.964 139.793 244.229 141.369 241.642 140.614Z" fill="#EC36A4"/>
<path d="M241.642 140.614L167.75 119.061C165.117 118.293 163.618 115.482 164.388 112.752L194.22 6.92341C194.989 4.1936 197.724 2.61737 200.358 3.38565L274.25 24.9386C276.883 25.7069 278.382 28.5179 277.612 31.2477L247.766 137.125C246.964 139.793 244.229 141.369 241.642 140.614Z" stroke="white" stroke-width="6" stroke-miterlimit="10"/>
</g>
<path d="M318.963 96L314.288 91.1707L330.215 75.2927H295V68.6341H330.215L314.288 52.6829L318.963 48L343 71.9268L318.963 96Z" fill="#EC36A4"/>
<path d="M24.0365 48L28.7123 52.8293L12.7854 68.7073L48 68.7073V75.3659L12.7854 75.3659L28.7123 91.3171L24.0365 96L-3.76081e-07 72.0732L24.0365 48Z" fill="white"/>
<defs>
<filter id="filter0_d_2_40" x="150.195" y="0.180786" width="130.61" height="155.633" filterUnits="userSpaceOnUse" color-interpolation-filters="sRGB">
<feFlood flood-opacity="0" result="BackgroundImageFix"/>
<feColorMatrix in="SourceAlpha" type="matrix" values="0 0 0 0 0 0 0 0 0 0 0 0 0 0 0 0 0 0 127 0" result="hardAlpha"/>
<feOffset dx="-7" dy="8"/>
<feGaussianBlur stdDeviation="2"/>
<feComposite in2="hardAlpha" operator="out"/>
<feColorMatrix type="matrix" values="0 0 0 0 0 0 0 0 0 0 0 0 0 0 0 0 0 0 0.25 0"/>
<feBlend mode="normal" in2="BackgroundImageFix" result="effect1_dropShadow_2_40"/>
<feBlend mode="normal" in="SourceGraphic" in2="effect1_dropShadow_2_40" result="shape"/>
</filter>
</defs>
</svg>
